<?xml version="1.0" encoding="utf-8"?>
<!-- Generator: Adobe Illustrator 18.1.1, SVG Export Plug-In . SVG Version: 6.00 Build 0)  -->
<!DOCTYPE svg PUBLIC "-//W3C//DTD SVG 1.1//EN" "http://www.w3.org/Graphics/SVG/1.1/DTD/svg11.dtd">
<svg version="1.1" id="Layer_1" xmlns="http://www.w3.org/2000/svg" xmlns:xlink="http://www.w3.org/1999/xlink" x="0px" y="0px"
	 viewBox="388 388 24 24" enable-background="new 388 388 24 24" xml:space="preserve">
<g>
	<path fill="#208CD7" d="M409.2,411h-18.4c-1,0-1.8-0.8-1.8-1.8v-16.5c0-1,0.8-1.8,1.8-1.8h18.4c1,0,1.8,0.8,1.8,1.8v16.5
		C411,410.2,410.2,411,409.2,411z M409.2,409.2v0.9V409.2z M409.2,392.7l-18.3,0l0,16.5l18.3,0V392.7z M410.1,398.2h-20.2
		c-0.5,0-0.9-0.4-0.9-0.9s0.4-0.9,0.9-0.9h20.2c0.5,0,0.9,0.4,0.9,0.9S410.6,398.2,410.1,398.2z M399.1,407.3
		c-0.2,0-0.5-0.1-0.6-0.3l-2.8-2.8c-0.4-0.4-0.4-0.9,0-1.3c0.4-0.4,0.9-0.4,1.3,0l2,2l3.9-4.7c0.3-0.4,0.9-0.4,1.3-0.1
		c0.4,0.3,0.4,0.9,0.1,1.3l-4.6,5.5C399.6,407.2,399.4,407.3,399.1,407.3L399.1,407.3L399.1,407.3z M405.5,394.5
		c-0.5,0-0.9-0.4-0.9-0.9v-3.7c0-0.5,0.4-0.9,0.9-0.9s0.9,0.4,0.9,0.9v3.7C406.4,394.1,406,394.5,405.5,394.5z M394.5,394.5
		c-0.5,0-0.9-0.4-0.9-0.9v-3.7c0-0.5,0.4-0.9,0.9-0.9s0.9,0.4,0.9,0.9v3.7C395.4,394.1,395,394.5,394.5,394.5z"/>
</g>
<text transform="matrix(1 0 0 1 80.0004 1040.0051)" enable-background="new    "><tspan x="0" y="0" font-family="'Arial-BoldMT'" font-size="133.3333">Created by </tspan><tspan x="726.2" y="0" font-family="'MyriadPro-Regular'" font-size="133.3333">✦</tspan><tspan x="792.8" y="0" font-family="'Arial-BoldMT'" font-size="133.3333"> Shmidt Sergey </tspan><tspan x="1800.5" y="0" font-family="'MyriadPro-Regular'" font-size="133.3333">✦</tspan></text>
<text transform="matrix(1 0 0 1 80.0004 1173.3438)" font-family="'Arial-BoldMT'" font-size="133.3333">from the Noun Project</text>
</svg>
