<?xml version="1.0" encoding="utf-8"?>
<!-- Generator: Adobe Illustrator 18.1.1, SVG Export Plug-In . SVG Version: 6.00 Build 0)  -->
<!DOCTYPE svg PUBLIC "-//W3C//DTD SVG 1.1//EN" "http://www.w3.org/Graphics/SVG/1.1/DTD/svg11.dtd">
<svg version="1.1" id="Layer_1" xmlns="http://www.w3.org/2000/svg" xmlns:xlink="http://www.w3.org/1999/xlink" x="0px" y="0px"
	 viewBox="388 388 24 24" enable-background="new 388 388 24 24" xml:space="preserve">
<g>
	<circle fill="#BC5245" cx="400" cy="393.3" r="4.8"/>
	<path fill="#BC5245" d="M404.9,401c0,1,0,2-0.1,2.8c0.5,0.2,1,0.5,1.3,1c0.4,0.6,0.6,1.3,0.5,2l0,0.2c0.1,0.1,0.2,0.2,0.2,0.4
		c0.1,0.4-0.2,0.9-0.6,1c-0.4,0.1-0.9-0.2-1-0.6c-0.1-0.4,0.1-0.8,0.5-0.9l0-0.2c0.1-0.5,0-1-0.3-1.4c-0.3-0.4-0.7-0.7-1.2-0.8
		c-0.5-0.1-1,0-1.4,0.3c-0.4,0.3-0.7,0.7-0.8,1.2l0,0.2c0.1,0.1,0.2,0.2,0.2,0.4c0.1,0.4-0.2,0.9-0.6,1c-0.4,0.1-0.9-0.2-1-0.6
		c-0.1-0.4,0.1-0.8,0.5-0.9l0-0.2c0.1-0.7,0.5-1.3,1.1-1.8c0.5-0.3,1-0.5,1.6-0.5c0.1-0.9,0.1-2,0.1-3c-1.1-0.3-2.4-0.5-4-0.5
		c-1.5,0-2.8,0.2-3.9,0.5c-0.1,1.7,0,3.5,0.5,4.8c0.1,0,0.2,0,0.3,0c0.8,0.1,1.3,0.9,1.2,1.7c-0.1,0.8-0.9,1.3-1.7,1.2
		c-0.8-0.1-1.3-0.9-1.2-1.7c0.1-0.4,0.3-0.7,0.5-0.9c-0.5-1.3-0.7-3.1-0.6-4.8c-3.6,1.4-4.5,4.4-4.5,6.5v2.2c0,1,0.8,1.8,1.8,1.8h15
		c1,0,1.8-0.8,1.8-1.8v-2.2C409.3,405.5,408.4,402.5,404.9,401z"/>
</g>
</svg>
