<?xml version="1.0" encoding="utf-8"?>
<!-- Generator: Adobe Illustrator 18.1.1, SVG Export Plug-In . SVG Version: 6.00 Build 0)  -->
<!DOCTYPE svg PUBLIC "-//W3C//DTD SVG 1.1//EN" "http://www.w3.org/Graphics/SVG/1.1/DTD/svg11.dtd">
<svg version="1.1" id="Layer_1" xmlns="http://www.w3.org/2000/svg" xmlns:xlink="http://www.w3.org/1999/xlink" x="0px" y="0px"
	 viewBox="388 388 24 24" enable-background="new 388 388 24 24" xml:space="preserve">
<g>
	<path fill="#E5A649" d="M409.9,407.6c-0.7-3.8-4-6.6-7.9-6.6h-4c-4,0-7.3,2.9-8,6.8l0,0c-0.3,2,1.2,3.7,3.2,3.7h13.6
		c2,0,3.5-1.8,3.2-3.8L409.9,407.6z"/>
	<path fill="#E5A649" d="M395.9,397.9c2.3,2.3,6,2.3,8.3,0.1l0.1-0.1c2-1.9,2.2-5.1,0.4-7.2l0,0c-2.4-2.9-7-2.9-9.3,0.1l0,0
		C393.8,392.9,394,395.9,395.9,397.9L395.9,397.9z"/>
</g>
</svg>
