<?xml version="1.0" encoding="utf-8"?>
<!-- Generator: Adobe Illustrator 18.1.1, SVG Export Plug-In . SVG Version: 6.00 Build 0)  -->
<!DOCTYPE svg PUBLIC "-//W3C//DTD SVG 1.1//EN" "http://www.w3.org/Graphics/SVG/1.1/DTD/svg11.dtd">
<svg version="1.1" id="Layer_1" xmlns="http://www.w3.org/2000/svg" xmlns:xlink="http://www.w3.org/1999/xlink" x="0px" y="0px"
	 viewBox="388 388 24 24" enable-background="new 388 388 24 24" xml:space="preserve">
<path fill="#80B438" d="M411,398v7.2c0,1.1-0.8,2.1-1.9,2.3v2.1c0,0.5-0.4,0.9-0.9,0.9c-0.2,0-0.5-0.1-0.6-0.3l-2.7-2.7h-8.1
	c-1.3,0-2.3-1-2.4-2.2l1.4-1.4h0.3v1.2c0,0.4,0.3,0.7,0.7,0.7h8.8l1.9,1.9V406h1.2c0.4,0,0.7-0.3,0.7-0.7V398c0-0.4-0.3-0.7-0.7-0.7
	h-1.4v-1.7h1.4C409.9,395.7,411,396.7,411,398z M389,400v-7.2c0-1.3,1.1-2.4,2.4-2.4h11.8c1.3,0,2.4,1.1,2.4,2.4v7.2
	c0,1.3-1.1,2.4-2.4,2.4h-8.1l-2.7,2.7c-0.2,0.2-0.4,0.3-0.6,0.3s-0.4-0.1-0.6-0.3c-0.2-0.2-0.3-0.4-0.3-0.7v-2.1
	C389.8,402.1,389,401.2,389,400z M399.6,397.6h2.3v-2.3h-2.3V397.6z M396.2,397.6h2.3v-2.3h-2.3V397.6z M392.8,397.6h2.3v-2.3h-2.3
	V397.6z"/>
</svg>
