<?xml version="1.0" encoding="utf-8"?>
<!-- Generator: Adobe Illustrator 18.1.1, SVG Export Plug-In . SVG Version: 6.00 Build 0)  -->
<!DOCTYPE svg PUBLIC "-//W3C//DTD SVG 1.1//EN" "http://www.w3.org/Graphics/SVG/1.1/DTD/svg11.dtd">
<svg version="1.1" id="Layer_1" xmlns="http://www.w3.org/2000/svg" xmlns:xlink="http://www.w3.org/1999/xlink" x="0px" y="0px"
	 viewBox="388 388 24 24" enable-background="new 388 388 24 24" xml:space="preserve">
<path fill="#F57B45" d="M410.3,405.2c-0.2-0.3-0.6-0.5-0.9-0.6l-3.9-0.9c-0.4-0.1-0.8,0-1.2,0.3c-0.5,0.4-1.2,1.1-1.6,1.7
	c-0.2,0.2-0.3,0.2-0.6,0.1c-1.2-0.4-3.4-1.7-4.7-3.1c-1.4-1.4-2.7-3.5-3.1-4.7c-0.1-0.3-0.1-0.4,0.1-0.6c0.6-0.4,1.3-1.1,1.7-1.6
	c0.3-0.4,0.4-0.7,0.3-1.2l-0.9-3.9c-0.1-0.4-0.2-0.8-0.6-0.9c-1.5-0.8-2.5-0.9-3.2-0.4c-0.9,0.6-2.1,1.9-2.5,3.2
	c-0.7,2.4,1,9.4,5,13.4c4,4,11,5.7,13.4,5c1.3-0.4,2.6-1.6,3.2-2.5C411.2,407.7,411.1,406.7,410.3,405.2z M401.6,395.6l2.8-2.8
	l0.8,0.8l1.1-4l-4,1.1l0.8,0.8l-2.8,2.8L401.6,395.6z M405,395l-2.8,2.8l-0.8-0.8l-1.1,4l4-1.1l-0.8-0.8l2.8-2.8L405,395z"/>
</svg>
