<?xml version="1.0" encoding="utf-8"?>
<!-- Generator: Adobe Illustrator 18.1.1, SVG Export Plug-In . SVG Version: 6.00 Build 0)  -->
<!DOCTYPE svg PUBLIC "-//W3C//DTD SVG 1.1//EN" "http://www.w3.org/Graphics/SVG/1.1/DTD/svg11.dtd">
<svg version="1.1" id="Layer_1" xmlns="http://www.w3.org/2000/svg" xmlns:xlink="http://www.w3.org/1999/xlink" x="0px" y="0px"
	 viewBox="388 388 24 24" enable-background="new 388 388 24 24" xml:space="preserve">
<title>Calendar 1</title>
<g>
	<g>
		<path fill="#FB8A84" d="M408,391.5h-2v-2h-2v2h-8v-2h-2v2h-2c-1.7,0-3,1.3-3,3v13c0,1.7,1.3,3,3,3h16c1.7,0,3-1.3,3-3v-13
			C411,392.8,409.7,391.5,408,391.5z M409,407.5c0,0.6-0.4,1-1,1h-16c-0.6,0-1-0.4-1-1v-9h18V407.5z M391,396.5v-2c0-0.6,0.4-1,1-1
			h2v1h2v-1h8v1h2v-1h2c0.6,0,1,0.4,1,1v2H391z"/>
		<rect x="393" y="400.5" fill="#FB8A84" width="2" height="2"/>
		<rect x="397" y="400.5" fill="#FB8A84" width="2" height="2"/>
		<rect x="401" y="400.5" fill="#FB8A84" width="2" height="2"/>
		<rect x="405" y="400.5" fill="#FB8A84" width="2" height="2"/>
		<rect x="393" y="404.5" fill="#FB8A84" width="2" height="2"/>
		<rect x="397" y="404.5" fill="#FB8A84" width="2" height="2"/>
		<rect x="401" y="404.5" fill="#FB8A84" width="2" height="2"/>
		<rect x="405" y="404.5" fill="#FB8A84" width="2" height="2"/>
	</g>
</g>
</svg>
