<svg xmlns="http://www.w3.org/2000/svg" xmlns:xlink="http://www.w3.org/1999/xlink" version="1.1" x="0px" y="0px" viewBox="0 0 100 125" enable-background="new 0 0 100 100" xml:space="preserve"><g><path d="M87.162,10.365h-20.22c-2.959,0-5.366,2.407-5.366,5.366v37.416c0,1.478,0.002,2.17,10.704,8.106V71.83   c0,0.828,0.672,1.5,1.5,1.5h0.772V86.5h-7.622V69.452c0-8.998-7.293-16.293-16.292-16.293H25.792   c-8.998,0-16.292,7.295-16.292,16.293V91.5h40.173h17.258h10.122c1.381,0,2.5-1.119,2.5-2.5V73.33h0.771c0.828,0,1.5-0.672,1.5-1.5   V61.242c10.702-5.965,10.705-6.608,10.705-8.096V15.73C92.528,12.772,90.121,10.365,87.162,10.365z M87.528,52.028   c-1.394,0.951-4.642,2.861-8.075,4.798h-4.82c-3.433-1.927-6.676-3.831-8.057-4.781V15.73c0-0.202,0.164-0.366,0.366-0.366h20.22   c0.202,0,0.366,0.164,0.366,0.366V52.028z"/><circle cx="38.215" cy="31.284" r="17.125"/><path d="M85.052,30.417h-4.75v-4.75c0-0.276-0.224-0.5-0.5-0.5h-5.5c-0.276,0-0.5,0.224-0.5,0.5v4.75h-4.749   c-0.276,0-0.5,0.224-0.5,0.5v5.5c0,0.276,0.224,0.5,0.5,0.5h4.749v4.75c0,0.276,0.224,0.5,0.5,0.5h5.5c0.276,0,0.5-0.224,0.5-0.5   v-4.75h4.75c0.276,0,0.5-0.224,0.5-0.5v-5.5C85.552,30.64,85.328,30.417,85.052,30.417z"/></g><text x="0" y="115" fill="#000000" font-size="5px" font-weight="bold" font-family="'Helvetica Neue', Helvetica, Arial-Unicode, Arial, Sans-serif">Created by mungang kim</text><text x="0" y="120" fill="#000000" font-size="5px" font-weight="bold" font-family="'Helvetica Neue', Helvetica, Arial-Unicode, Arial, Sans-serif">from the Noun Project</text></svg>